<?xml version="1.0" encoding="UTF-8"?>
<svg width="32" height="32" viewBox="0 0 32 32" xmlns="http://www.w3.org/2000/svg">
    <!-- Main chip body -->
    <rect x="6" y="6" width="20" height="20" fill="#444" rx="2"/>
    
    <!-- Pins -->
    <rect x="2" y="10" width="4" height="2" fill="#666"/>
    <rect x="2" y="14" width="4" height="2" fill="#666"/>
    <rect x="2" y="18" width="4" height="2" fill="#666"/>
    
    <rect x="26" y="10" width="4" height="2" fill="#666"/>
    <rect x="26" y="14" width="4" height="2" fill="#666"/>
    <rect x="26" y="18" width="4" height="2" fill="#666"/>
    
    <rect x="10" y="2" width="2" height="4" fill="#666"/>
    <rect x="14" y="2" width="2" height="4" fill="#666"/>
    <rect x="18" y="2" width="2" height="4" fill="#666"/>
    
    <rect x="10" y="26" width="2" height="4" fill="#666"/>
    <rect x="14" y="26" width="2" height="4" fill="#666"/>
    <rect x="18" y="26" width="2" height="4" fill="#666"/>
    
    <!-- Circuit lines -->
    <path d="M10 10 h8 v8 h-8 z" fill="none" stroke="#888" stroke-width="1"/>
    <path d="M14 14 h8 v8 h-8 z" fill="none" stroke="#888" stroke-width="1"/>
</svg> 